<svg xmlns="http://www.w3.org/2000/svg" viewBox="0 0 512 512">
  <defs>
    <linearGradient id="g" x1="0" x2="1" y1="0" y2="1">
      <stop offset="0" stop-color="#f7c948"/>
      <stop offset="0.55" stop-color="#fb7185"/>
      <stop offset="1" stop-color="#00e5a0"/>
    </linearGradient>
  </defs>
  <rect width="512" height="512" rx="108" fill="#050914"/>
  <circle cx="256" cy="256" r="184" fill="url(#g)" opacity="0.18"/>
  <path d="M184 84h144l24 78c10 34-2 73-31 94l-24 18v80h52l38 74H125l38-74h52v-80l-24-18c-29-21-41-60-31-94l24-78Z" fill="url(#g)"/>
  <path d="M150 154c-42 10-72 38-72 78 0 50 40 84 95 91" fill="none" stroke="#f7c948" stroke-width="28" stroke-linecap="round"/>
  <path d="M362 154c42 10 72 38 72 78 0 50-40 84-95 91" fill="none" stroke="#00e5a0" stroke-width="28" stroke-linecap="round"/>
  <text x="256" y="454" text-anchor="middle" font-family="Arial, sans-serif" font-size="74" font-weight="900" fill="#ffffff">GP</text>
</svg>
